<svg xmlns="http://www.w3.org/2000/svg" viewBox="0 0 867 1113.98"><defs><style>.cls-1{fill:none;stroke:#000;stroke-miterlimit:10;}.cls-2{font-size:27px;}.cls-12,.cls-17,.cls-2,.cls-5{font-family:TimesNewRomanPS-BoldMT, Times New Roman;font-weight:700;}.cls-3{letter-spacing:-0.02em;}.cls-4{letter-spacing:-0.02em;}.cls-5{font-size:21px;letter-spacing:0.02em;}.cls-6{letter-spacing:-0.02em;}.cls-7{letter-spacing:0em;}.cls-8{letter-spacing:-0.02em;}.cls-9{letter-spacing:-0.04em;}.cls-10{letter-spacing:0.02em;}.cls-11{letter-spacing:-0.06em;}.cls-12{font-size:35px;letter-spacing:0.02em;}.cls-13{letter-spacing:-0.04em;}.cls-14{letter-spacing:0em;}.cls-15{letter-spacing:-0.06em;}.cls-16{letter-spacing:-0.07em;}.cls-17{font-size:30px;}.cls-18{letter-spacing:-0.04em;}</style></defs><title>7Asset 8</title><g id="Layer_2" data-name="Layer 2"><g id="Layer_1-2" data-name="Layer 1"><path d="M56.36,118.74c-2.68-.4-5.37-.69-8-1.21A57.26,57.26,0,0,1,46.66,5.79c31.67-7.76,64,13.32,69.65,45.4a57.18,57.18,0,0,1-44.08,66.22c-2.43.55-4.94.75-7.42,1.12-.39,0-.78.14-1.18.21ZM60,6.22a55.27,55.27,0,1,0,55.28,55.2A55.31,55.31,0,0,0,60,6.22Z"/><path d="M92.69,30a61.34,61.34,0,0,1,3,5.6c3.3,8,6.48,16.08,9.71,24.13a5.35,5.35,0,0,1,0,4.12c-3.25,8.21-6.45,16.45-9.73,24.65a40,40,0,0,1-2.29,4.4,5.86,5.86,0,0,1-.85.94c-1.43-1.38-2.84-2.69-4.18-4.08a1.36,1.36,0,0,1-.07-1.19c3.06-6.54,6.18-13.06,9.25-19.6.91-1.93,1.79-3.88,2.53-5.87A3.15,3.15,0,0,0,100,61c-2.55-5.67-5.18-11.3-7.78-17-1.34-2.89-2.69-5.78-4-8.69a1.29,1.29,0,0,1,.06-1.14c1.26-1.47,2.6-2.86,3.91-4.28Z"/><path d="M25.31,27.81c1.81,1.76,3.63,3.5,5.43,5.28s1.88,1.89.69,4.32q-4.82,9.84-9.59,19.71c-.6,1.23-1.24,2.45-1.82,3.69a3.86,3.86,0,0,0,.05,3.67C22.9,70,25.6,75.62,28.38,81.18q1.76,3.51,3.66,7a1.12,1.12,0,0,1-.29,1.64c-1.29,1.16-2.53,2.38-4,3.75-.86-1.58-1.91-3.2-2.65-4.94C22.59,82.74,20.19,76.83,17.71,71c-.92-2.2-1.88-4.38-2.91-6.53a3.18,3.18,0,0,1-.16-2.66c1.68-4.46,3.3-8.94,5-13.38q2.3-5.93,4.76-11.78c.78-1.83.54-3.72.59-5.61,0-1,0-2,0-3Z"/><path d="M77.11,97.62c-.4-1.38-1.34-1.45-2.44-1.45q-13.38,0-26.76,0c-1.71,0-3.3-.08-3.72,2.23l-.29-.12L38.11,85.33l3.7-3.65c.51.35,1.09.78,1.69,1.18,1.49,1,3.23,1,4.91,1,8.39,0,16.79.12,25.18,0,1.55,0,3.09-.9,4.89-1.47.94.94,2.17,2.15,3.37,3.39a.74.74,0,0,1,.06.64C80.32,90.14,78.71,93.88,77.11,97.62ZM66,93.77v-.2c2.38,0,4.77,0,7.15,0a3.71,3.71,0,0,0,1-.33,7.14,7.14,0,0,0-.39-.94c-.67-1.05-1.42-2.06-2-3.14a1.86,1.86,0,0,0-1.81-1.1c-6.62,0-13.24,0-19.86,0a1.54,1.54,0,0,0-1.08.67c-.84,1.33-1.57,2.72-2.38,4.07-.33.56-.15.83.42.92a6.29,6.29,0,0,0,1,0Z"/><path d="M76.93,26.61c1.72,4,3.32,7.71,4.89,11.42a1.07,1.07,0,0,1-.16.94c-1.07,1.09-2.2,2.11-3.45,3.29-1.38-2-3.38-1.69-5.31-1.69-8.24,0-16.48,0-24.72-.11a8,8,0,0,0-5.93,2.22c-1.23-1.19-2.43-2.32-3.55-3.52a1.33,1.33,0,0,1,0-1.15c1.36-2.88,2.79-5.73,4.16-8.61.41-.85.73-1.75,1.24-3,.63,2.09,2,1.86,3.38,1.87,5.93,0,11.87,0,17.81.05,2.86,0,5.72.23,8.58.19C75.08,28.47,76.5,28.5,76.93,26.61ZM60.26,30.94v0c-4.2,0-8.4,0-12.6,0-.84,0-1.33.21-.84,1.11.68,1.24,1.37,2.47,2.15,3.65a1.67,1.67,0,0,0,1.18.61c5.77,0,11.54-.19,17.29,0,2.82.1,4.84-.44,5.82-3.25.06-.19.27-.32.33-.51.13-.4.4-.91.26-1.2S73.12,31,72.72,31C68.57,30.93,64.41,30.94,60.26,30.94Z"/><path d="M37.42,40c1.27,1.18,2.41,2.2,3.48,3.3a1.16,1.16,0,0,1,0,1c-1.75,3.9-3.56,7.78-5.32,11.68a53.71,53.71,0,0,0-2,5,4.17,4.17,0,0,0,.09,3.19c2.32,5.1,4.54,10.25,6.78,15.39a1.14,1.14,0,0,1,0,1c-.95,1.14-2,2.22-3.11,3.47-.39-.72-.74-1.28-1-1.88C33.91,77.11,31.53,72,29.19,66.93a28.58,28.58,0,0,1-1.54-4.07,3.27,3.27,0,0,1,.29-2c1.19-2.79,2.43-5.55,3.68-8.31Q34.14,47,36.69,41.47C36.89,41,37.12,40.62,37.42,40Z"/><path d="M78.94,43.43l3.86-3.6c.75,1.65,1.45,3.13,2.11,4.63,2.33,5.24,4.61,10.5,7,15.71a4.68,4.68,0,0,1,0,4c-2.87,6.67-5.78,13.33-8.68,20a7.56,7.56,0,0,1-.43.69l-3.43-3.64c2.53-6,5-11.91,7.46-17.78a3.42,3.42,0,0,0-.22-2.9c-2.3-5.21-4.57-10.42-6.87-15.62C79.57,44.41,79.26,44,78.94,43.43Z"/><path d="M75,78.35H45.4C46.05,77.6,46.5,77,47,76.5c1.21-1.24,2.4-2.52,3.7-3.65a3.63,3.63,0,0,1,2.1-.9c4.92-.08,9.85-.06,14.78,0a2.7,2.7,0,0,1,1.72.65c1.83,1.7,3.58,3.5,5.35,5.28A3.48,3.48,0,0,1,75,78.35Z"/><path d="M45.76,46.18h28.9l.27.44c-.34.24-.68.47-1,.73-1.82,1.46-3.6,3-5.48,4.38a4.19,4.19,0,0,1-2.29.84c-4.44.08-8.89,0-13.33.06a2.43,2.43,0,0,1-2-.91c-1.44-1.58-3-3.09-4.48-4.58a3.26,3.26,0,0,0-1.12-.49Z"/><path d="M71.63,15c-2.77,1.62-5.61,3.13-8.3,4.89A4.05,4.05,0,0,1,58.4,20c-2.78-1.7-5.68-3.18-8.55-5,4.21.29,6.94-2.64,10.39-4.23v6.92a2.92,2.92,0,0,0,0,1.07c.15.32.52.53.79.78.16-.28.44-.55.45-.84.05-2.18,0-4.36.06-6.54,0-.44.06-.87.1-1.45,1.68.93,3.28,1.73,4.79,2.68a6.65,6.65,0,0,0,5.13,1.29Z"/><path d="M71.51,110.39c-3.93-.41-6.37,2.69-9.76,3.9,0-2.3,0-4.61,0-6.93,0-.63.28-1.64-.67-1.68s-.83,1-.83,1.67c0,2.36,0,4.73,0,7.07-3.33-1.5-5.93-4.42-10.18-4a5.83,5.83,0,0,1,.67-.6c3.1-1.71,6.19-3.46,9.34-5.09a2.45,2.45,0,0,1,2,0c3.15,1.71,6.22,3.55,9.32,5.35C71.44,110.09,71.44,110.2,71.51,110.39Z"/><path d="M23,23.22h15.9c-.42.8-.77,1.59-1.23,2.3a1.33,1.33,0,0,1-.94.36c-3.56,0-7.11,0-10.67,0-1.6,0-2.19-1.44-3.2-2.27Z"/><path d="M82.24,23.28H97.13a3.29,3.29,0,0,1-3.31,2.39c-2.89,0-5.79,0-8.69,0C83.61,25.69,83.25,24.45,82.24,23.28Z"/><path d="M109.77,54.51c1.08,2.33,2.18,4.65,3.21,7a1.74,1.74,0,0,1,0,1.27c-1.06,2.39-2.17,4.75-3.27,7.12a.49.49,0,0,1-.16.18V54.57Z"/><path d="M11.19,70.86c-.6-1.4-1.17-2.81-1.8-4.19-.46-1-1-2-1.49-3a2,2,0,0,1-.21-1.36,66.25,66.25,0,0,1,3.5-7.07Z"/><path d="M37.31,100.26H23.57c.94-1.19,1.66-1.81,3.07-1.7,2.93.23,5.87.21,8.81.23C36.54,98.8,37.24,99.13,37.31,100.26Z"/><path d="M95.51,99.45h-12l-.21-.21c.46-.29.89-.79,1.36-.83,2.84-.23,5.68-.31,8.52-.53a2.74,2.74,0,0,1,2.41,1.18Z"/><path d="M29.47,94.36l3.67-4,1.8,4Z"/><path d="M87.42,90.75l2.86,3.37H86Z"/><path d="M69.7,52.5,74,48.79V52.5Z"/><path d="M34.77,30.84l-1.32,2.7-2.58-2.7Z"/><path d="M49.25,52.6l-3-.23V49.16Z"/><path d="M46.26,75V72h3.15Z"/><path d="M74,75.25,71,72h3l.27,3.16Z"/><path d="M87,33.05l-1-2.4h3.35Z"/><line class="cls-1" x1="634" y1="991.28" x2="824.5" y2="991.28"/><text class="cls-2" transform="translate(187.62 183.43) scale(0.9 1)">Armo<tspan class="cls-3" x="67.47" y="0">r</tspan><tspan x="78.97" y="0" xml:space="preserve"> Class</tspan></text><text class="cls-2" transform="translate(371 183.42)">Initiative</text><text class="cls-2" transform="translate(556.49 183.42)">Speed</text><text class="cls-2" transform="translate(695.02 183.42)">P<tspan class="cls-4" x="16.49" y="0">r</tspan><tspan x="27.99" y="0">oficiency</tspan></text><text class="cls-5" transform="translate(151 17.45)">ISSUED B<tspan class="cls-6" x="97.81" y="0">Y</tspan><tspan class="cls-7" x="112.54" y="0"> </tspan><tspan x="117.74" y="0">THE RISK INTELLIGENCE DIVISION</tspan><tspan x="0" y="20">OFFICE O</tspan><tspan class="cls-6" x="103.61" y="20">F</tspan><tspan x="115.99" y="20" xml:space="preserve"> COVE</tspan><tspan class="cls-8" x="183.59" y="20">R</tspan><tspan class="cls-7" x="198.36" y="20">T</tspan><tspan class="cls-9" x="212.32" y="20"> </tspan><tspan x="216.75" y="20">ASSESSMEN</tspan><tspan class="cls-7" x="344.65" y="20">T</tspan><tspan class="cls-10" x="358.62" y="20" xml:space="preserve"> OPER</tspan><tspan class="cls-11" x="423.88" y="20">A</tspan><tspan x="437.82" y="20">TIONS</tspan><tspan x="0" y="40">REGISTRAR FOR ENHANCED INDIVIDUALS</tspan></text><text class="cls-12" transform="translate(151.78 117.73)">RISK LEVE<tspan class="cls-13" x="194.69" y="0">L </tspan><tspan x="224.04" y="0">ASSESSMEN</tspan><tspan class="cls-14" x="437.22" y="0">T</tspan></text><text class="cls-2" transform="translate(20 991.42)">ASSESSING<tspan class="cls-15" x="148.58" y="0"> </tspan><tspan x="153.84" y="0">AGEN</tspan><tspan class="cls-16" x="231.85" y="0">T</tspan><tspan x="247.85" y="0">:</tspan></text><text class="cls-2" transform="translate(548.5 991.42)">D<tspan class="cls-16" x="19.5" y="0">A</tspan><tspan x="36.99" y="0">TE:</tspan></text><line class="cls-1" x1="281.5" y1="991.53" x2="521.5" y2="991.03"/><path d="M298.2,991.89c1.24-.93,1,0,2-.19l1,.35,1-1c.87,0,1.75.36,2.5.45a7.93,7.93,0,0,1,2.51.33l.45-.49c1.07-1.32.19-.41.87-.46a3.42,3.42,0,0,0,.52.78c.18.37.41.29.67-.24.48.06,1.65-1,2.5-.87.26,0,.81,1.15,1,1.36l.44-.5c1.19-1.34.68.47,1.56.34a9,9,0,0,0,2.25-.82l.76.43.75-.74c.55.12,1.3.92,2.25,1.21l.45-.5c1.52-2,.61.34,3.06.38.82,0,.8-.56,1.5-.67l1-.72.76.72c.61-.08.94-.59,1.41-.43.7.24.31,1.26,1.35,1.34s.91-1.18,1.72-1.19,1.27.58,1.78.92l.45-.5c1.22-1.42.95-.36,2.31-.36a8.9,8.9,0,0,1,2.76,0c2.3.55,3.91-.27,6.26-.24,1,0,2.06.26,3.26.21.78,0,1.57.24,2.25.22.45,0,.56.32,1,.25s.7-1,1.26-.92c.8,0,1.13.85,1.75,1,.27.07.52-.82,1-.72s.77.48,1,.51c.76.12.79.47,1.75.48.65,0,1.31-.45,2-.42,1.33.06,1.6.5,2.75.43.46,0,.57-.8.95-.92.66-.22.81.54,1.31.47.27,0,.74-1.1,1-1s.86.53,1.16.59.33.87.68.94c.56.12.37-.51.92-.61,2.65-.48,5-1.92,7.26.7l.44-.5c1-1.18.88.52,1.82.33.77-.16,1.15-1.43,2.26-1.27s1,1.08,2,1.15,1.57-1.61,3-1.24c.78.19,1.13,1.13,1.75,1.39a8.55,8.55,0,0,0,2.25-.18c.6-.15,1.4-1,2-.93.92,0,1.39.9,2.5,1.29l.45-.5c.52-.6,1.38-.52,2.06-.53a1.09,1.09,0,0,1,1.51-.17l1,1.21c1.36,0,2.67-1.26,4-1.12l2.5.26a5.55,5.55,0,0,1,1.51-.36l1,1.24c1,0,2.05-.71,3-.84a18.8,18.8,0,0,1,3-.16l1,.73,1-.67a5.18,5.18,0,0,1,2,.47l1-.92c2.1-.28,4,1.11,6,1.33a4.41,4.41,0,0,0,2-.2l1-.74a15.46,15.46,0,0,1,2,.42q1,.63,1.5-.27c.39-.69.72-.64,1,.15a1.05,1.05,0,0,0,1.49.66A2.19,2.19,0,0,0,437,992a1,1,0,0,0,1-.6,1,1,0,0,1,1.51-.44l1,.69,1-1c.22.35.45.69.66,1,.29.53.73.58,1.33.16a9.59,9.59,0,0,0,2.51.15,2,2,0,0,1,1.5-.15c.33-.36.64-.72.95-1.1,1.39-.08,1.48.9,2.56,1.14a5.72,5.72,0,0,0,2.51,0c.5-.18,2-1.21,2.51-1.11.88.16.73,1.12,1.49,1.33,1.55.43.78-.47,2-.62a24.94,24.94,0,0,1,3,.2l1,.41,1-.57,1,.87,1-.64c.69-.14,1.3-.76,2-.92l1,.76,1-.75c.66.31,1.43,1.44,2,2l.45-.5a3.27,3.27,0,0,0,.68-1.4,3.88,3.88,0,0,0,.38.69c-.66.19,1.84.28,1.26,0a7.61,7.61,0,0,0,4.25.93c-.59,0,2.41.13,2,.25.57-.16.9-1.07,1.52-1.22,1.55-.39,2.38,0,3.49,1.24l.45-.5c1-1.24.27-.76,1.57-.7l.5.57c.28.72.61.77,1,.15.49,0,1-1.19,1.52-1.23.21.37.42.73.65,1.09s.44.51.67,0c.42.1.36-.9,1.18-.74.61.12,1,1.48,1.48,1.49s1.45-1.52,2-1.74a11.58,11.58,0,0,0,1.5.48,1.79,1.79,0,0,1,1-.47c.45-.28.78-.16,1,.38.43,0,1.32.33,1.75.38l.74,1,1-1.11c.18,0,1.63.11,1.5.12.92-.06,2.81.76,4,.5-.64.14,2.2-.45,1.28-.61.2-.83.37-.76.54.21.21.36.44.7.68,1s1.62-5.19,1.44-4.29a97.93,97.93,0,0,0,1.36-10.52,101.68,101.68,0,0,0,.49-10.61c0-1.41.15-3.27-.67-4.47-1.67-2.4-.56-1.08-2.5-.63a8.26,8.26,0,0,1-2-.29c-.46-.06-1.17.36-1.51.3-.83-.14-.5-1.17-1.49-.83s-1.26.92-1.77,1l-.74-1-1,.45-.49-.52q-.51-1-1.5-.24c.72.12-2.38.55-1.51.26-.34-.54-.67-.54-1,0l-.51.43-1,.88-.74-.9c-.43-.08-1.37-.48-1.58-.52l-.45.5c-.14.7-.32.7-.54,0,1.44-.36-2.33-.74-1.19-.55-.47-.08-1.05,1.29-1.51,1.25-.27,0-1.45-1.33-2-1.54l-.45.5c-1.18,1.45-.18.44-1.05.37a10.15,10.15,0,0,0-1.76-.52c-1.23,0-2.24.69-3.27,1a11.29,11.29,0,0,1-4.51-.12l-1-1-.51.38c-.34.52-.61.52-.81,0a2.56,2.56,0,0,0-.68-.91l-.45.5c-1.48,2.15-.73.3-2.56-.55,0,0-1.15.56-1.26.56-.55,0-.56-.53-1.25-.38-.54.13-1,.6-1.51.73a5.38,5.38,0,0,1-1.5.2,28,28,0,0,1-3-.14,13.27,13.27,0,0,0-1.5-.34c.29,0-2.53,1-2,1.07-1.26-.19-1.4-1.57-2.49-1.78s-2.77,1.39-4,1.23c-1.09-.14-2.11-1.07-3.5-1.35l-.44.49c-.81.94-2.06.75-3.08.79a19.09,19.09,0,0,1-2,0c-.3-.11-1-.91-1.17-1-.45-.08-.81.46-1.09.4.15,0-1.24-.42-1.25-.42-1.33.35-2.41,1.32-4,1-.65-.16-1.39-.93-1.75-1-.66-.1-.56.67-1.26.64s-1.67-.62-2.5-.54-.82.53-1.51.66c-2.39.44-3.54-.63-6-1.07a15,15,0,0,0-2-.06l-.75.68c-.32.43-.74.39-1.26-.11-.09,0-1.44.21-1.5.21-.28,0-1.16-.37-1.5-.39a32.07,32.07,0,0,0-4.51.36c-.47,0-.93.68-1.51.63-.06,0-1.25-1.07-1.5-1.14-.49-.14-1,.43-1.51.44s-.93-.49-1.5-.49-.94.53-1.5.63-.72-.54-1.25-.41-.85.72-1.26.7c-.66,0-.66-.53-1.25-.65-1.2-.24-2.13.27-3.26-.27l-.44.5c-1.21,1.4-1.29-.4-2.31-.58-.75-.13-1.1.34-2,.52a4.53,4.53,0,0,1-2.26.19c-.25,0-.77.57-1,.48-.39-.16-.38-1.15-.83-1.29-1.3-.41-1.73.21-2.93.51-.39.09-.87.87-1.25.85-.22,0-.4-1.12-.67-1.17A4,4,0,0,0,383,961c-1.71.48-.45,1.31-2-.26l-.44.5c-.7.84-2.18-.68-3.57-.81-1.76-.17-2.69.59-4.26.82-1,.14-.05.66-1.07.39-.36-.1-.37-1-.93-1-1.49-.17-1.34,1.1-2.76-.07l-.44.5c-1.66,1.86-2.32,0-4.57.46l-2,.6-.75-.77a.92.92,0,0,0-.75-.43c-.45-.32-.78-.2-1,.37s-.63.71-.82,0l-.35-.57c-.62,0-1.21.49-1.84.52l-.5.48-1-.66c-.5,0-1.24-.13-1.76-.14-.9,0-1.93,0-2.75,0-.34,0-1.22.29-1.51.27-2.24-.22-3.36.35-5.51-.15a19.49,19.49,0,0,0-2-.2,11,11,0,0,0-2.5-.48c-.37,0-1,1.6-1.11,1.6s-1.56-1.07-1.9-1.2l-.44.5c-1.64,2-1.27-.37-2.4-.64-.44-.11-.57.62-.92.56.35.06-1.75-.55-1.25-.7-.77.22-1.3,1.53-2,1.67-1,.22-2.45-1.15-3-1.85l-.45.49c-1.42,1.88-.61.16-2.06.33l-.5-.58-1,1-.75-.43c-.31-.27-.56-.16-.75.36-1.3.12-1.27.7-2.51-.5l-.44.49c-.61.69-1.63-.71-3.07-.47-2,.34-.91,1.43-2.51-.54l-.44.5c-1.11,1.36-.52.52-2.06.6-.76,0-1.95-.28-2.51-.2-1,.14-1.61.6-2.5.68-1.48.12-1-1.1-2.5,0-1,.73-1.27,3.41-1.44,4.28a126.22,126.22,0,0,0-1.85,21.13c0,.42.39,4.68.67,4.47Z"/><path d="M644.43,991.88c1.68,1.67,1.66.81,4.08,1.25l.44-.5c1.21-1.68,2.23-.77,4-.7,1.08,0,.73.42,2,0,.51-.15.89-1,1.45-1.08s1.08.56,1.53.62a4.55,4.55,0,0,0,1.24-.21c.05,0,1,1.14,1.14,1.16.38,0,1.08-.38,1.64-.5.75-.15,1.68-.16,2.48-.31l1-1,.36.48c-1.45.18,2.42,1,1.18.54-.8-.27,2.12,0,1.51.12a25.08,25.08,0,0,1,3.48-.37,7.89,7.89,0,0,1,3.51.29l.44-.5c1-1.32.21-.44.86-.51a2.9,2.9,0,0,0,.52.77c.2.37.42.28.66-.26.48,0,1.62-1,2.46-1,.3,0,.83,1.12,1,1.33l.44-.5c1.15-1.37.67.44,1.55.29a9.24,9.24,0,0,0,2.22-.89l.76.41.73-.75c.55.1,1.32.88,2.28,1.15l.44-.5c1.47-2,.6.31,3,.3.83,0,.78-.58,1.49-.7l1-.74.76.71c.61-.09.93-.61,1.41-.46.71.23.31,1.26,1.36,1.32,2,.12,1-2,3.49-.32l.44-.5c1.2-1.44.94-.39,2.29-.41a9.1,9.1,0,0,1,2.75,0c2.3.52,3.9-.31,6.24-.29,1,0,2.06.25,3.25.2.78,0,1.56.23,2.24.21.45,0,.55.31,1,.25s.69-1,1.25-.93c.8,0,1.13.86,1.75,1,.27.07.52-.81,1-.71.32.07.76.48,1,.51.77.12.79.47,1.75.48.65,0,1.3-.44,2-.41,1.32.07,1.6.5,2.74.45.48,0,.61-.86,1-1,.68-.21.7.61,1.24.55.28,0,.75-1.1,1-1s.86.54,1.15.6.33.87.66,1c.56.12.38-.51.93-.61,2.65-.45,5-1.85,7.22.81l.45-.5c1.46-1.71.18.25,1,0a1.82,1.82,0,0,0,.5.63l.51-.51c.33,0,1-.84,1.52-.89,1-.1.74.33,1.29.46,1.33.32-.28.64,1.18.65.35,0,.93-.66,1.27-.79a3.13,3.13,0,0,1,2.25-.34c.34.1.41,1.16.8,1.31,1.61.65,3.3-1.2,4.94-1,.61.06.7,1,1.22,1.09,1.23.22.45-.15,1.5-.18.43,0,2-.84,2.53-.72.73.16,1.26,1.06,1.7,1.14s.83-.24,1.26-.17a8.91,8.91,0,0,0,1.26-.4c.13,0,1,.17,1.25.17a18.52,18.52,0,0,1,3,.08c.52.09,1.34,0,1.75,0l.71,1,1-.25,2-.47a7.06,7.06,0,0,1,2,0c.31,0,1.72.69,2,.71.43,0,1-.52,1.53-.54.73,0,1.45.06,2,0a12.48,12.48,0,0,1,2-.17,6.51,6.51,0,0,1,3.43,1.34c.42.31,2.7-13.66,2.8-14.81a98.82,98.82,0,0,0,.48-10.6c0-1.06.29-3.78-.67-4.47a8.42,8.42,0,0,0-2.92-1.45,12.91,12.91,0,0,0-2.25.06l-.79.65-1-.38c-2.26.42-4.93-.24-7.49-.15a1.76,1.76,0,0,1-1,.45c-.49.28-.82.11-1-.52l-1.48-.49a22.82,22.82,0,0,0-3-.2,11,11,0,0,1-1.51.25c-.15,0-.75,0-1,0-.44,0-1.08.82-1.53.75s-.8-1.17-1.45-1.34a10.55,10.55,0,0,0-2.76.33c-.8.13-.24.81-1.27.66-.64-.1-.76-1-1.22-1.1-.84-.2-1.49.42-2.52.68a7.9,7.9,0,0,1-2.5.25c-1.11-.51-.79-1.66-2.71-1.35-1.12.18-1.9,1.28-2.68,1.11-1.41-.29-.3-1.46-2.57-.85-1.95.51-.56,1.58-2.25-.2l-.44.5c-.6.69-2.25-.74-3.55-.88a7.07,7.07,0,0,0-3.5.45c-.22.09-1.41,1.11-1.52,1.09-.37-.06-.42-1.06-.81-1.14s-.76-.5-1.16-.58-.73,1-1,1.05c-.72.1-.49-.78-1.25-.56-.47.14-.66,1-1.25,1.13-1.12.21-1.76-.86-3.5-.48-.54.12-1.45.67-2,.6s-.65-1.1-1.25-1.13a6.65,6.65,0,0,0-1.25.28l-.5.53c-.15-.27-.32-.55-.49-.82-.13,0-.48-.54-.76-.56-.55-.05-.85.74-1.24.8-1.09.15-1.23-.37-2.5-.6-.84-.15-2.36.44-3.25.43a18.8,18.8,0,0,0-3.24-.2c-1.2.18-2,1.1-3.49.72-.76-.2-.63-.92-1.51-1-.69-.06-1,.7-1.49.68s-.7-1-1.51-.8c-.65.13-.76.76-1.27.89l-.33.72-.38-.44L703,960l-.45.5c-1.6,2.07-1.26-.34-2.39-.59-.44-.1-.55.63-.9.58.35,0-1.77-.52-1.26-.67-.77.23-1.27,1.54-2,1.71-1,.23-2.47-1.1-3-1.8l-.45.5c-1.37,1.91-.6.18-2,.38L690,960l-1,1-.76-.4c-.31-.27-.55-.15-.74.37-1.29.16-1.23.74-2.51-.43l-.44.5c-.6.72-1.61-.66-3-.37-2,.4-.86,1.46-2.52-.46l-.44.5c-.91,1.19-1.28,1-3,.85.07,0-1.64-.26-1.51-.28-.49.1-1.79.93-2,.93-.52,0-1.07-.57-1.53-.57a4.44,4.44,0,0,0-1.23.33s-1.11-1-1.13-1c-.46,0-1,.67-1.63.88a8.1,8.1,0,0,1-2.49.16l-1,.78-.37-.57c1.15,0-2.2-1-1.19-.62.72.3-2.1-.2-1.51-.27-.75.08-.75-.13-1.5,0-.56.12-.92,1.08-1.44,1.15-1.09.16-1-.57-1.79-.71a27.08,27.08,0,0,1-3.26-.16l-.45.49c-1.33,1.85-3,1.45-4.53-.1-.43-.42-1.61,5.13-1.44,4.28a129.09,129.09,0,0,0-1.85,21.13c0,1.22-.26,3.55.67,4.47Z"/><rect class="cls-1" x="169.5" y="198.03" width="169" height="169"/><rect class="cls-1" x="338.5" y="198.03" width="169" height="169"/><rect class="cls-1" x="507.5" y="198.03" width="169" height="169"/><rect class="cls-1" x="676.5" y="198.03" width="169" height="169"/><line class="cls-1" x1="0.5" y1="1102.03" x2="845.5" y2="1102.03"/><text class="cls-2" transform="translate(20 1054.42)">AUTHORIZED:</text><path d="M346.84,1081.6c-12.6,6.67-23.17,16.15-38,14.74l-1.91-5.2-.92.09-.72,7.58-1.16.34-2.29-6c-.11,0-.54,0-.57.11-.93,3.21-2.35,6.74-5.84,6.74-1.39,0-3.62-3.93-4-6.31a169.51,169.51,0,0,1-2.44-21.88c-.39-10.45-.06-20.92-.15-31.38a26.32,26.32,0,0,0-1.05-4.87c-8.12,16.11-7.77,33-9.7,49.72l-.92-3c-.27.16-.67.33-.66.42a18.6,18.6,0,0,1,.33,6.32c-.57,3.2-1.62,6.42-1.59,9.62,0,4,1.16,8,1.37,12.06.06,1-1.52,2.17-2.35,3.26-.75-1.14-2.19-2.29-2.16-3.4.29-9.87.29-19.79,1.43-29.58,1.89-16.08,4.42-32.1,7-48.09.54-3.35,2.64-6.42,3.68-9.73.6-1.89.53-4,1.79-6.35l2.42,4.29-4.33,10.1,7.31-4.46c2.44,14.26,1.49,27.22-.25,40.14a76.92,76.92,0,0,0,1.11,25.82c.33,1.6,1.61,3,3.18,5.82,1.58-4.91,2.79-8.29,3.75-11.73,1.39-5,2.4-5.56,6.72-3.45,3.09-9.87,6-19.89,9.42-29.76a96,96,0,0,1,6.7-15.22,22.68,22.68,0,0,1,6.64-7.09c2.05-1.45,4-1,2.8,2.5q-4.33,12.92-8.31,25.94c-1.86,6.15-3.3,12.43-5.13,18.59-1.32,4.45-3,8.8-4.69,13.79,7.66.49,13.64-2.18,19.35-5.71,3.43-2.12,6.58-4.84,10.23-6.42,4.45-1.92,6.47-5.36,8-9.47,4.29-11.52,7.7-23.48,13.12-34.44,5.13-10.38,10.57-21.18,21-27.62,2.1-1.29,5.64-1.25,8.1-.48,1.08.34,1.77,4.13,1.49,6.2-1,7.75-2.56,15.44-3.87,23.16-.16,1-.14,1.94-.92,1.81,4.06-3.42,8-7,12.25-10.17,1.08-.81,3-.47,5-.71-3.69,8.76-6.64,16.36-10.06,23.75-3.79,8.18-8,16.19-12.07,24.23-2.53,4.92-5.33,9.7-7.84,14.64-1.13,2.23-2.57,2.33-4.86,2.14-3-.24-6.5-1.64-8.92,1.57s-1.58,5.63,2.21,5.56a70.45,70.45,0,0,0,17.34-2.06c29.25-8.11,56.53-21,83.27-35.12,4.23-2.23,8.1-5.15,12.23-7.58a16.59,16.59,0,0,1,4.1-1.17l.38,1.28c-9.74,5.69-19.19,12-29.28,16.94-14.37,7.08-29,13.68-43.91,19.58a342.78,342.78,0,0,1-36.9,12c-4.36,1.17-9.43-.32-13.53-.56-3.46,1.3-7.3,4.23-10.06,3.43-4.2-1.22-4.93-6-4.3-10.47C345.6,1091.75,346.14,1087.11,346.84,1081.6Zm5.54-9.2c8.21-5.46,13.89-12.85,18.75-21.07,3.09-5.22,6.06-11,10.58-14.76,7.06-5.8,8.54-13.24,9.45-21.27.17-1.48-.6-3.07-.93-4.61-1.57.42-3.55.38-4.63,1.35-3.42,3-7,6.13-9.6,9.8-3.41,4.75-5.81,10.21-9,15.13C359.91,1047.88,356.09,1060.1,352.38,1072.4Zm34.43-35-1.16-.92c-3.35,4.63-6.93,9.11-10,13.92-5.77,9.06-11.43,18.21-20.42,24.48-8.54,6-6.72,15.28-8.05,23.54-.36,2.17-.2,6,3.45,5.17,2.17-.46,5.35-3.06,5.51-4.92.66-7.82,4.25-14.36,7.72-21a71.54,71.54,0,0,1,5.55-9.47C376.46,1058.65,386.16,1050.63,386.81,1037.43Zm10.95,3-1.79-1.15c-2.72,4.08-5.89,7.92-8,12.28-2.3,4.66-3.52,9.85-5.51,14.69-.45,1.08-2.14,1.66-3.26,2.47.06-1.25,0-2.51.21-3.74.2-1.51.57-3,1.13-5.75-7.37,9.15-12.83,23.1-12,29.32,4.6.91,6.54-2,8.32-5.52,4.68-9.23,9.64-18.32,14.28-27.58C393.57,1050.57,395.57,1045.46,397.76,1040.44Zm-88.18,46.15,1.47.25q5.06-17.71,10.12-35.43l-1.38-.38C315.78,1062.71,311.13,1074.2,309.58,1086.59Z"/><rect class="cls-1" x="0.5" y="198.03" width="169" height="169"/><text class="cls-2" transform="translate(5.88 183.43) scale(0.9 1)">Max Hit Points</text><line class="cls-1" x1="135.5" y1="4.03" x2="134.5" y2="118.03"/><text class="cls-17" transform="translate(20.59 411.42)">SUBJEC<tspan class="cls-4" x="115.03" y="0">T</tspan><tspan class="cls-15" x="134.5" y="0"> </tspan><tspan x="140.35" y="0">ABILIT</tspan><tspan class="cls-18" x="245.39" y="0">Y</tspan><tspan x="265.94" y="0" xml:space="preserve"> DE</tspan><tspan class="cls-16" x="315.12" y="0">T</tspan><tspan x="332.9" y="0">AILS:</tspan></text><line class="cls-1" x1="0.5" y1="435.03" x2="845.5" y2="435.03"/></g></g></svg>