<svg xmlns="http://www.w3.org/2000/svg" viewBox="0 0 677.22 129.2"><defs><style>.cls-1{font-size:21px;letter-spacing:0.02em;}.cls-1,.cls-8{font-family:TimesNewRomanPS-BoldMT, Times New Roman;font-weight:700;}.cls-2{letter-spacing:-0.02em;}.cls-3{letter-spacing:0em;}.cls-4{letter-spacing:-0.02em;}.cls-5{letter-spacing:-0.04em;}.cls-6{letter-spacing:0.02em;}.cls-7{letter-spacing:-0.06em;}.cls-8{font-size:35px;letter-spacing:0.02em;}.cls-9{letter-spacing:0em;}.cls-10{letter-spacing:-0.06em;}.cls-11{fill:none;stroke:#000;stroke-miterlimit:10;}</style></defs><title>7Asset 11</title><g id="Layer_2" data-name="Layer 2"><g id="Layer_1-2" data-name="Layer 1"><path d="M53.57,118.74c-2.67-.4-5.36-.69-8-1.21A57.26,57.26,0,0,1,43.88,5.79c31.67-7.76,64,13.32,69.65,45.4a57.19,57.19,0,0,1-44.08,66.22c-2.43.55-4.94.75-7.42,1.12-.39,0-.79.14-1.18.21ZM57.2,6.22a55.27,55.27,0,1,0,55.27,55.2A55.31,55.31,0,0,0,57.2,6.22Z"/><path d="M89.9,30a59.05,59.05,0,0,1,3,5.6c3.3,8,6.48,16.08,9.7,24.13a5.35,5.35,0,0,1,0,4.12c-3.25,8.21-6.45,16.45-9.73,24.65a40,40,0,0,1-2.29,4.4,7,7,0,0,1-.85.94c-1.43-1.38-2.85-2.69-4.18-4.08a1.36,1.36,0,0,1-.07-1.19c3.06-6.54,6.17-13.06,9.25-19.6.9-1.93,1.79-3.88,2.53-5.87A3.2,3.2,0,0,0,97.16,61c-2.54-5.67-5.17-11.3-7.77-17-1.34-2.89-2.7-5.78-4-8.69a1.32,1.32,0,0,1,.07-1.14c1.26-1.47,2.59-2.86,3.9-4.28Z"/><path d="M22.52,27.81c1.82,1.76,3.64,3.5,5.44,5.28s1.88,1.89.69,4.32q-4.81,9.84-9.6,19.71c-.6,1.23-1.24,2.45-1.81,3.69a3.88,3.88,0,0,0,0,3.67c2.84,5.53,5.53,11.14,8.31,16.7q1.77,3.51,3.67,7a1.13,1.13,0,0,1-.3,1.64c-1.29,1.16-2.53,2.38-4,3.75-.85-1.58-1.9-3.2-2.65-4.94-2.52-5.85-4.92-11.76-7.4-17.63C14,68.76,13,66.58,12,64.43a3.18,3.18,0,0,1-.17-2.66c1.69-4.46,3.31-8.94,5-13.38q2.3-5.93,4.76-11.78c.77-1.83.54-3.72.59-5.61,0-1,0-2,0-3Z"/><path d="M74.33,97.62c-.41-1.38-1.34-1.45-2.44-1.45q-13.38,0-26.77,0c-1.71,0-3.3-.08-3.71,2.23l-.29-.12L35.33,85.33,39,81.68c.5.35,1.08.78,1.68,1.18,1.5,1,3.24,1,4.92,1,8.39,0,16.78.12,25.17,0,1.56,0,3.1-.9,4.9-1.47.94.94,2.17,2.15,3.37,3.39a.71.71,0,0,1,.05.64C77.54,90.14,75.93,93.88,74.33,97.62ZM63.26,93.77v-.2c2.38,0,4.76,0,7.15,0a3.84,3.84,0,0,0,1-.33,6,6,0,0,0-.4-.94c-.67-1.05-1.41-2.06-2-3.14a1.86,1.86,0,0,0-1.82-1.1c-6.62,0-13.23,0-19.85,0a1.54,1.54,0,0,0-1.08.67c-.84,1.33-1.58,2.72-2.38,4.07-.34.56-.15.83.42.92a6.23,6.23,0,0,0,1,0Z"/><path d="M74.14,26.61c1.73,4,3.33,7.71,4.89,11.42a1,1,0,0,1-.15.94c-1.07,1.09-2.2,2.11-3.45,3.29-1.38-2-3.38-1.69-5.31-1.69-8.24,0-16.48,0-24.72-.11a8.06,8.06,0,0,0-5.94,2.22c-1.22-1.19-2.43-2.32-3.54-3.52-.19-.21-.12-.82,0-1.15,1.37-2.88,2.79-5.73,4.17-8.61.41-.85.72-1.75,1.24-3,.63,2.09,2,1.86,3.37,1.87,5.94,0,11.88,0,17.82.05,2.86,0,5.72.23,8.58.19C72.29,28.47,73.72,28.5,74.14,26.61ZM57.47,30.94v0c-4.19,0-8.39,0-12.59,0-.84,0-1.34.21-.84,1.11.67,1.24,1.37,2.47,2.15,3.65a1.67,1.67,0,0,0,1.18.61c5.76,0,11.54-.19,17.29,0,2.82.1,4.84-.44,5.82-3.25.06-.19.27-.32.33-.51.13-.4.4-.91.26-1.2S70.33,31,69.94,31C65.78,30.93,61.63,30.94,57.47,30.94Z"/><path d="M34.64,40c1.26,1.18,2.41,2.2,3.48,3.3a1.16,1.16,0,0,1,0,1c-1.76,3.9-3.57,7.78-5.32,11.68a51.14,51.14,0,0,0-2,5,4.16,4.16,0,0,0,.08,3.19c2.32,5.1,4.55,10.25,6.78,15.39a1.14,1.14,0,0,1,0,1c-1,1.14-2,2.22-3.11,3.47-.39-.72-.74-1.28-1-1.88C31.13,77.11,28.75,72,26.41,66.93a28.58,28.58,0,0,1-1.54-4.07,3.27,3.27,0,0,1,.29-2c1.18-2.79,2.43-5.55,3.68-8.31Q31.36,47,33.91,41.47C34.1,41,34.34,40.62,34.64,40Z"/><path d="M76.16,43.43,80,39.83c.75,1.65,1.44,3.13,2.11,4.63,2.33,5.24,4.61,10.5,7,15.71a4.64,4.64,0,0,1,.06,4q-4.32,10-8.69,20a5.84,5.84,0,0,1-.43.69l-3.42-3.64c2.53-6,5-11.91,7.46-17.78a3.42,3.42,0,0,0-.22-2.9Q80.42,52.69,77,44.88C76.79,44.41,76.48,44,76.16,43.43Z"/><path d="M72.22,78.35H42.62c.65-.75,1.1-1.33,1.6-1.85,1.22-1.24,2.4-2.52,3.71-3.65A3.61,3.61,0,0,1,50,72c4.92-.08,9.85-.06,14.77,0a2.7,2.7,0,0,1,1.73.65c1.83,1.7,3.58,3.5,5.35,5.28A4.66,4.66,0,0,1,72.22,78.35Z"/><path d="M43,46.18h28.9l.27.44c-.34.24-.69.47-1,.73-1.82,1.46-3.59,3-5.47,4.38a4.19,4.19,0,0,1-2.29.84c-4.44.08-8.89,0-13.33.06a2.41,2.41,0,0,1-2-.91c-1.45-1.58-3-3.09-4.48-4.58a3.4,3.4,0,0,0-1.13-.49Z"/><path d="M68.85,15c-2.77,1.62-5.62,3.13-8.3,4.89a4.07,4.07,0,0,1-4.94.08c-2.77-1.7-5.68-3.18-8.54-5,4.2.29,6.94-2.64,10.38-4.23v6.92a2.71,2.71,0,0,0,0,1.07c.14.32.52.53.79.78.15-.28.44-.55.44-.84.05-2.18.05-4.36.07-6.54,0-.44.05-.87.1-1.45,1.68.93,3.28,1.73,4.79,2.68a6.65,6.65,0,0,0,5.13,1.29Z"/><path d="M68.73,110.39c-3.93-.41-6.37,2.69-9.76,3.9,0-2.3,0-4.61,0-6.93,0-.63.29-1.64-.66-1.68s-.83,1-.83,1.67c0,2.36,0,4.73,0,7.07-3.32-1.5-5.92-4.42-10.17-4a7.14,7.14,0,0,1,.66-.6c3.11-1.71,6.2-3.46,9.35-5.09a2.45,2.45,0,0,1,2,0c3.14,1.71,6.22,3.55,9.32,5.35C68.65,110.09,68.66,110.2,68.73,110.39Z"/><path d="M20.18,23.22H36.07a23.79,23.79,0,0,1-1.23,2.3,1.29,1.29,0,0,1-.93.36c-3.56,0-7.12,0-10.67,0-1.6,0-2.19-1.44-3.2-2.27Z"/><path d="M79.46,23.28H94.35A3.3,3.3,0,0,1,91,25.67c-2.9,0-5.79,0-8.69,0C80.83,25.69,80.47,24.45,79.46,23.28Z"/><path d="M107,54.51c1.08,2.33,2.19,4.65,3.22,7a1.74,1.74,0,0,1,0,1.27c-1,2.39-2.16,4.75-3.26,7.12a.6.6,0,0,1-.16.18V54.57Z"/><path d="M8.4,70.86c-.59-1.4-1.16-2.81-1.79-4.19-.47-1-1-2-1.49-3a2,2,0,0,1-.21-1.36A68.1,68.1,0,0,1,8.4,55.23Z"/><path d="M34.53,100.26H20.79c.93-1.19,1.66-1.81,3.07-1.7,2.93.23,5.87.21,8.81.23C33.76,98.8,34.46,99.13,34.53,100.26Z"/><path d="M92.72,99.45h-12l-.21-.21c.45-.29.89-.79,1.36-.83,2.83-.23,5.68-.31,8.51-.53a2.72,2.72,0,0,1,2.41,1.18Z"/><path d="M26.69,94.36l3.67-4,1.79,4Z"/><path d="M84.64,90.75l2.86,3.37H83.21Z"/><path d="M66.91,52.5l4.32-3.71V52.5Z"/><path d="M32,30.84l-1.31,2.7-2.58-2.7Z"/><path d="M46.47,52.6l-3-.23V49.16Z"/><path d="M43.48,75V72h3.14Z"/><path d="M71.24,75.25,68.17,72h3l.27,3.16Z"/><path d="M84.24,33.05l-1-2.4h3.34Z"/><text class="cls-1" transform="translate(148.22 17.45)">ISSUED B<tspan class="cls-2" x="97.81" y="0">Y</tspan><tspan class="cls-3" x="112.54" y="0"> </tspan><tspan x="117.74" y="0">THE ENGAGEMENTS DIVISION</tspan><tspan x="0" y="20">OFFICE O</tspan><tspan class="cls-2" x="103.61" y="20">F</tspan><tspan x="115.99" y="20" xml:space="preserve"> COVE</tspan><tspan class="cls-4" x="183.59" y="20">R</tspan><tspan class="cls-3" x="198.36" y="20">T</tspan><tspan class="cls-5" x="212.32" y="20"> </tspan><tspan x="216.75" y="20">ASSESSMEN</tspan><tspan class="cls-3" x="344.65" y="20">T</tspan><tspan class="cls-6" x="358.62" y="20" xml:space="preserve"> OPER</tspan><tspan class="cls-7" x="423.88" y="20">A</tspan><tspan x="437.82" y="20">TIONS</tspan><tspan x="0" y="40">REGISTRAR FOR ENHANCED INDIVIDUALS</tspan></text><text class="cls-8" transform="translate(149 117.73)">ENGAGEMEN<tspan class="cls-9" x="238.38" y="0">T </tspan><tspan x="270.33" y="0">THRE</tspan><tspan class="cls-10" x="371.76" y="0">A</tspan><tspan x="395" y="0">TS</tspan></text><line class="cls-11" x1="132.72" y1="4.03" x2="131.72" y2="118.03"/></g></g></svg>