<svg xmlns="http://www.w3.org/2000/svg" viewBox="0 0 593 302.09"><defs><style>.cls-1,.cls-2,.cls-3{fill:#b52c2c;}.cls-2,.cls-3,.cls-4,.cls-5,.cls-6{stroke:#c33;stroke-miterlimit:10;}.cls-2{stroke-width:0.25px;}.cls-4,.cls-5,.cls-6{fill:none;}.cls-4,.cls-5{stroke-linecap:round;}.cls-5{stroke-dasharray:12.11 12.11;}</style></defs><title>7Asset 4</title><g id="Layer_2" data-name="Layer 2"><g id="Layer_1-2" data-name="Layer 1"><path class="cls-1" d="M118,91.79a6.67,6.67,0,0,1,2.49,2.59,7.62,7.62,0,0,1,.9,3.7v.42a7.68,7.68,0,0,1-.9,3.71,6.59,6.59,0,0,1-2.49,2.61,7.06,7.06,0,0,1-3.65.94h-5.28v7.1H102v-22h12.35A7.06,7.06,0,0,1,118,91.79Zm-8.93,8.82H112a2.21,2.21,0,0,0,1.68-.58,2.15,2.15,0,0,0,.56-1.57v-.25a2.19,2.19,0,0,0-.56-1.59,2.29,2.29,0,0,0-1.68-.56h-2.91Z"/><path class="cls-1" d="M125.1,90.85h19v5.28h-12v3h10.24v5H132.17v3.36h12.19v5.28H125.1Z"/><path class="cls-1" d="M168,101.25a6.23,6.23,0,0,1-3.17,2.4l4.9,9.21H161.8l-3.9-8h-2.62v8H148.2v-22h13.48a8.34,8.34,0,0,1,4,.91,6.13,6.13,0,0,1,2.53,2.46,6.9,6.9,0,0,1,.85,3.38A6.42,6.42,0,0,1,168,101.25Zm-6.69-4.8a1.88,1.88,0,0,0-1.4-.58h-4.64v4.07h4.64a1.86,1.86,0,0,0,1.4-.6,2,2,0,0,0,.58-1.45A1.92,1.92,0,0,0,161.32,96.45Z"/><path class="cls-1" d="M189.29,92.18a5.77,5.77,0,0,1,2.79,5.07v.38h-6.63V97.5a2.07,2.07,0,0,0-.7-1.6,3.15,3.15,0,0,0-2.15-.64,4.49,4.49,0,0,0-2.16.42,1.2,1.2,0,0,0-.75,1,1.36,1.36,0,0,0,1,1.28,19.42,19.42,0,0,0,3.29.87,36,36,0,0,1,4.37,1.13,7.44,7.44,0,0,1,3,1.94,5.19,5.19,0,0,1,1.31,3.65,6.64,6.64,0,0,1-2.64,5.79,11.87,11.87,0,0,1-7,1.89q-5.16,0-8-1.73t-2.86-6.11h6.69a2.44,2.44,0,0,0,.86,2.22,5,5,0,0,0,2.69.56,7,7,0,0,0,2.22-.29,1.14,1.14,0,0,0,.88-1.18,1.3,1.3,0,0,0-1-1.2,19.61,19.61,0,0,0-3.19-.85,35.58,35.58,0,0,1-4.45-1.2,7.48,7.48,0,0,1-3.07-2.06,5.6,5.6,0,0,1-1.31-3.91,5.78,5.78,0,0,1,2.8-5.32,13.41,13.41,0,0,1,7.09-1.72A12.84,12.84,0,0,1,189.29,92.18Z"/><path class="cls-1" d="M216,93.38c2.07,1.94,3.1,4.76,3.1,8.48s-1,6.54-3.1,8.48-5,2.91-8.8,2.91-6.73-1-8.79-2.9-3.09-4.76-3.09-8.49,1-6.57,3.09-8.5,5-2.9,8.79-2.9S213.88,91.44,216,93.38Zm-12.26,3.74a5.51,5.51,0,0,0-1.18,3.71v2a5.47,5.47,0,0,0,1.18,3.71,4.31,4.31,0,0,0,3.46,1.38,4.35,4.35,0,0,0,3.47-1.38,5.43,5.43,0,0,0,1.2-3.71v-2a5.46,5.46,0,0,0-1.2-3.71,4.35,4.35,0,0,0-3.47-1.38A4.31,4.31,0,0,0,203.69,97.12Z"/><path class="cls-1" d="M238.6,112.86l-9.25-10.68v10.68h-6.49v-22H229l9.25,10.85V90.85h6.5v22Z"/><path class="cls-1" d="M264,112.86l-.93-3.1h-7.71l-.93,3.1h-7.23l8-22h8.22l8,22Zm-7.17-8h4.77L259.24,97h-.13Z"/><path class="cls-1" d="M274.09,90.85h7.07v16.38h11.3v5.63H274.09Z"/><path class="cls-1" d="M322.09,91.79a6.69,6.69,0,0,1,2.5,2.59,7.72,7.72,0,0,1,.89,3.7v.42a7.79,7.79,0,0,1-.89,3.71,6.61,6.61,0,0,1-2.5,2.61,7,7,0,0,1-3.65.94h-5.28v7.1h-7.07v-22h12.35A7,7,0,0,1,322.09,91.79Zm-8.93,8.82h2.91a2.21,2.21,0,0,0,1.68-.58,2.11,2.11,0,0,0,.56-1.57v-.25a2.14,2.14,0,0,0-.56-1.59,2.29,2.29,0,0,0-1.68-.56h-2.91Z"/><path class="cls-1" d="M349,101.25a6.23,6.23,0,0,1-3.17,2.4l4.9,9.21h-7.94l-3.9-8h-2.62v8h-7.08v-22h13.48a8.34,8.34,0,0,1,4,.91,6.13,6.13,0,0,1,2.53,2.46,6.9,6.9,0,0,1,.85,3.38A6.42,6.42,0,0,1,349,101.25Zm-6.69-4.8a1.88,1.88,0,0,0-1.4-.58h-4.64v4.07h4.64a1.86,1.86,0,0,0,1.4-.6,2,2,0,0,0,.58-1.45A1.92,1.92,0,0,0,342.31,96.45Z"/><path class="cls-1" d="M373.29,93.38c2.07,1.94,3.1,4.76,3.1,8.48s-1,6.54-3.1,8.48-5,2.91-8.8,2.91-6.72-1-8.78-2.9-3.09-4.76-3.09-8.49,1-6.57,3.09-8.5,5-2.9,8.78-2.9S371.22,91.44,373.29,93.38ZM361,97.12a5.51,5.51,0,0,0-1.19,3.71v2a5.47,5.47,0,0,0,1.19,3.71,4.28,4.28,0,0,0,3.45,1.38,4.35,4.35,0,0,0,3.47-1.38,5.43,5.43,0,0,0,1.2-3.71v-2a5.46,5.46,0,0,0-1.2-3.71,4.35,4.35,0,0,0-3.47-1.38A4.28,4.28,0,0,0,361,97.12Z"/><path class="cls-1" d="M396.2,91.79a6.69,6.69,0,0,1,2.5,2.59,7.61,7.61,0,0,1,.89,3.7v.42a7.68,7.68,0,0,1-.89,3.71,6.61,6.61,0,0,1-2.5,2.61,7,7,0,0,1-3.65.94h-5.27v7.1H380.2v-22h12.35A7,7,0,0,1,396.2,91.79Zm-8.92,8.82h2.91a2.24,2.24,0,0,0,1.68-.58,2.15,2.15,0,0,0,.56-1.57v-.25a2.19,2.19,0,0,0-.56-1.59,2.32,2.32,0,0,0-1.68-.56h-2.91Z"/><path class="cls-1" d="M403.31,90.85h19v5.28h-12v3h10.24v5H410.38v3.36h12.19v5.28H403.31Z"/><path class="cls-1" d="M446.22,101.25a6.28,6.28,0,0,1-3.17,2.4l4.9,9.21H440l-3.9-8h-2.63v8h-7.07v-22h13.47a8.36,8.36,0,0,1,4.05.91,6.19,6.19,0,0,1,2.53,2.46,7,7,0,0,1,.85,3.38A6.49,6.49,0,0,1,446.22,101.25Zm-6.69-4.8a1.89,1.89,0,0,0-1.41-.58h-4.64v4.07h4.64a1.87,1.87,0,0,0,1.41-.6,2,2,0,0,0,.58-1.45A2,2,0,0,0,439.53,96.45Z"/><path class="cls-1" d="M463.69,96.48v16.38h-7.07V96.48h-7.23V90.85h21.5v5.63Z"/><path class="cls-1" d="M487.79,112.86h-7.08v-8.54L472,90.85h8.13l4.22,7.33h.13l4.22-7.33h7.71l-8.6,13.47Z"/><path class="cls-1" d="M195.4,145.86v-22h7.08v22Z"/><path class="cls-1" d="M223.27,145.86,214,135.18v10.68h-6.5v-22h6.18L223,134.7V123.85h6.49v22Z"/><path class="cls-1" d="M240.17,145.86l-7.81-22h7.56l4.41,14.72h.13l4.45-14.72h7.23l-7.78,22Z"/><path class="cls-1" d="M259.08,123.85h19v5.28h-12v3H276.4v5.05H266.15v3.36h12.2v5.28H259.08Z"/><path class="cls-1" d="M297.93,145.86l-9.25-10.68v10.68h-6.49v-22h6.17l9.25,10.85V123.85h6.5v22Z"/><path class="cls-1" d="M321.51,129.48v16.38h-7.07V129.48h-7.23v-5.63h21.5v5.63Z"/><path class="cls-1" d="M350.6,126.38c2.07,1.94,3.11,4.76,3.11,8.48s-1,6.54-3.11,8.48-5,2.91-8.8,2.91-6.72-1-8.78-2.9-3.09-4.76-3.09-8.49,1-6.57,3.09-8.5,5-2.9,8.78-2.9S348.53,124.44,350.6,126.38Zm-12.25,3.74a5.51,5.51,0,0,0-1.19,3.71v2a5.47,5.47,0,0,0,1.19,3.71A4.28,4.28,0,0,0,341.8,141a4.34,4.34,0,0,0,3.47-1.38,5.43,5.43,0,0,0,1.2-3.71v-2a5.46,5.46,0,0,0-1.2-3.71,4.34,4.34,0,0,0-3.47-1.38A4.28,4.28,0,0,0,338.35,130.12Z"/><path class="cls-1" d="M377.32,134.25a6.23,6.23,0,0,1-3.17,2.4l4.9,9.21h-7.94l-3.9-8h-2.62v8h-7.08v-22H371a8.34,8.34,0,0,1,4,.91,6.13,6.13,0,0,1,2.53,2.46,6.9,6.9,0,0,1,.85,3.38A6.42,6.42,0,0,1,377.32,134.25Zm-6.69-4.8a1.88,1.88,0,0,0-1.4-.58h-4.64v4.07h4.64a1.86,1.86,0,0,0,1.4-.6,2,2,0,0,0,.58-1.45A1.92,1.92,0,0,0,370.63,129.45Z"/><path class="cls-1" d="M394.7,145.86h-7.07v-8.54l-8.74-13.47H387l4.22,7.33h.13l4.22-7.33h7.72l-8.61,13.47Z"/><path class="cls-2" d="M26,17.94l-.83-.17a6.49,6.49,0,0,1-2.88-1.41L23.41,15a5,5,0,0,0,1.61.95,5.57,5.57,0,0,0,1.9.32,3.79,3.79,0,0,0,2.16-.52,1.63,1.63,0,0,0,.76-1.45h0a1.49,1.49,0,0,0-.35-1.06,2.12,2.12,0,0,0-.89-.58,10.14,10.14,0,0,0-1.42-.35h-.12l-.13,0a13.74,13.74,0,0,1-2.09-.5,2.91,2.91,0,0,1-1.37-1,3.33,3.33,0,0,1-.57-2.09h0a3.66,3.66,0,0,1,.53-2A3.3,3.3,0,0,1,25,5.34a6.24,6.24,0,0,1,2.45-.44,6.07,6.07,0,0,1,1.35.15,7.21,7.21,0,0,1,1.31.44,7.55,7.55,0,0,1,1.27.75l-1,1.42a5.82,5.82,0,0,0-1.45-.8,4.18,4.18,0,0,0-1.46-.27,3.41,3.41,0,0,0-2,.52,1.7,1.7,0,0,0-.73,1.48h0a1.41,1.41,0,0,0,.38,1,2.3,2.3,0,0,0,.93.56,14.44,14.44,0,0,0,1.55.37h.07l.06,0h.1l.09,0a11.25,11.25,0,0,1,1.94.56,3.07,3.07,0,0,1,1.3,1.05,3.36,3.36,0,0,1,.53,2h0a3.51,3.51,0,0,1-.56,2,3.41,3.41,0,0,1-1.6,1.27,6.65,6.65,0,0,1-2.54.43Z"/><path class="cls-2" d="M34,5h1.79V17.81H34Zm.87,0H42.2V6.74H34.86Zm0,5.58h6.37v1.71H34.86Zm0,5.5H42.2v1.7H34.86Z"/><path class="cls-2" d="M48.23,5h1.53l4.71,12.78H52.53L49,7.5,45.45,17.81H43.52ZM45.69,13.3h6.72V15H45.69Z"/><path class="cls-2" d="M56.4,5h1.79V17.81H56.4Zm.9,11.08h7.31v1.7H57.3Z"/><path class="cls-2" d="M66.72,5h1.79V17.81H66.72Zm.87,0h7.34V6.74H67.59Zm0,5.58H74v1.71H67.59Zm0,5.5h7.34v1.7H67.59Z"/><path class="cls-2" d="M77.48,5h1.79V17.81H77.48Zm1.21,11.08h2.89a3,3,0,0,0,2.19-.74,2.71,2.71,0,0,0,.78-2.07V9.54a2.71,2.71,0,0,0-.78-2.07,3,3,0,0,0-2.19-.73H78.69V5h2.84a5.9,5.9,0,0,1,2.63.54,3.8,3.8,0,0,1,1.66,1.56,5.08,5.08,0,0,1,.57,2.48v3.62a5,5,0,0,1-.57,2.48,3.74,3.74,0,0,1-1.67,1.57,6,6,0,0,1-2.63.53H78.69Z"/><path class="cls-2" d="M94.12,5h1.79V17.81H94.12Zm1.06,11.12h3.46a3.08,3.08,0,0,0,2-.52,1.8,1.8,0,0,0,.62-1.46v0A2.54,2.54,0,0,0,101,13a1.53,1.53,0,0,0-.71-.71,2.65,2.65,0,0,0-1.24-.26h-3.9V10.45h3.9a2.16,2.16,0,0,0,1.5-.47,1.77,1.77,0,0,0,.5-1.38,1.75,1.75,0,0,0-.56-1.43,2.54,2.54,0,0,0-1.69-.48H95.18V5h4a4.41,4.41,0,0,1,2.07.43,2.78,2.78,0,0,1,1.25,1.19,3.83,3.83,0,0,1,.42,1.85,3,3,0,0,1-.26,1.23,2.57,2.57,0,0,1-.78,1,2.9,2.9,0,0,1-1.29.54,2.8,2.8,0,0,1,2.19,1.64,3.3,3.3,0,0,1,.3,1.41v0a3.65,3.65,0,0,1-.45,1.83,3.09,3.09,0,0,1-1.31,1.22,4.32,4.32,0,0,1-2,.43H95.18Z"/><path class="cls-2" d="M109.58,12.62v5.19h-1.79V12.62L103.9,5h2l2.8,5.77L111.48,5h2Z"/><path class="cls-2" d="M113.08,8.6H115v1.88h-1.88Zm0,7.33H115v1.88h-1.88Z"/><path class="cls-2" d="M23.08,27h1.8V39.81h-1.8Zm1.21,11.08h2.9a3.07,3.07,0,0,0,2.19-.74,2.71,2.71,0,0,0,.78-2.07V31.54a2.71,2.71,0,0,0-.78-2.07,3.07,3.07,0,0,0-2.19-.73h-2.9V27h2.84a5.84,5.84,0,0,1,2.63.54,3.75,3.75,0,0,1,1.66,1.56A5.08,5.08,0,0,1,32,31.61v3.62a5,5,0,0,1-.57,2.48,3.71,3.71,0,0,1-1.66,1.57,6,6,0,0,1-2.63.53H24.29Z"/><path class="cls-2" d="M37.85,27h1.53l4.71,12.78H42.15L38.61,29.5,35.07,39.81H33.14ZM35.31,35.3H42V37H35.31Z"/><path class="cls-2" d="M43.91,27h9v1.71h-9Zm3.61,1h1.8V39.81h-1.8Z"/><path class="cls-2" d="M54.69,27h1.79V39.81H54.69Zm.87,0H62.9v1.71H55.56Zm0,5.58h6.37v1.71H55.56Zm0,5.5H62.9v1.7H55.56Z"/><path class="cls-2" d="M65,30.6h1.88v1.88H65Zm0,7.33h1.88v1.88H65Z"/><line class="cls-3" x1="70.5" y1="40.03" x2="313.32" y2="40.03"/><line class="cls-3" x1="118.68" y1="18.03" x2="313.32" y2="18.03"/><line class="cls-4" x1="0.5" y1="67.03" x2="6.5" y2="67.03"/><line class="cls-5" x1="18.61" y1="67.03" x2="230.45" y2="67.03"/><line class="cls-4" x1="236.5" y1="67.03" x2="242.5" y2="67.03"/><path class="cls-1" d="M251.75,61.71h8.34v2.48h-5V66h4.32v2.37h-4.32V72h-3.32Z"/><path class="cls-1" d="M271,62.9a5.18,5.18,0,0,1,1.46,4,5.2,5.2,0,0,1-1.46,4,6.94,6.94,0,0,1-8.24,0,5.21,5.21,0,0,1-1.45-4,5.18,5.18,0,0,1,1.45-4,6.9,6.9,0,0,1,8.24,0Zm-5.74,1.75a2.58,2.58,0,0,0-.56,1.74v1a2.58,2.58,0,0,0,.56,1.74,2.34,2.34,0,0,0,3.24,0,2.53,2.53,0,0,0,.57-1.74v-1a2.53,2.53,0,0,0-.57-1.74,2.37,2.37,0,0,0-3.24,0Z"/><path class="cls-1" d="M274.25,61.71h3.32v7.68h5.29V72h-8.61Z"/><path class="cls-1" d="M294.14,66.87q0,5.16-5.41,5.16h-4.47V61.71h4.47Q294.15,61.71,294.14,66.87Zm-6.57,2.69h1.1c1.39,0,2.08-.75,2.08-2.24v-.9c0-1.49-.69-2.23-2.08-2.23h-1.1Z"/><path class="cls-1" d="M307.88,72V68.12h-3.64V72h-3.32V61.71h3.32v3.77h3.64V61.71h3.32V72Z"/><path class="cls-1" d="M313.42,61.71h8.92v2.48h-5.61v1.42h4.8V68h-4.8v1.58h5.72V72h-9Z"/><path class="cls-1" d="M333.53,66.59A2.91,2.91,0,0,1,332,67.71l2.3,4.32h-3.72l-1.83-3.76h-1.23V72h-3.31V61.71h6.31a4,4,0,0,1,1.9.43,2.87,2.87,0,0,1,1.18,1.16,3.17,3.17,0,0,1,.4,1.58A3,3,0,0,1,333.53,66.59Zm-3.14-2.25a.88.88,0,0,0-.65-.27h-2.18V66h2.18a.88.88,0,0,0,.65-.27.94.94,0,0,0,.28-.69A.88.88,0,0,0,330.39,64.34Z"/><path class="cls-1" d="M335.92,61.71h8.92v2.48h-5.61v1.42H344V68h-4.8v1.58H345V72h-9Z"/><line class="cls-4" x1="350.5" y1="67.03" x2="356.5" y2="67.03"/><line class="cls-5" x1="368.61" y1="67.03" x2="580.45" y2="67.03"/><line class="cls-4" x1="586.5" y1="67.03" x2="592.5" y2="67.03"/><path d="M514.53.09V47.4h-3.76V.09Z"/><path d="M457,.09V47.4h-3.75V.09Z"/><path d="M573.34.09V47.4h-3.75V.09Z"/><path d="M428.18.09V47.51l-2.5.13V.09Z"/><path d="M469.48.09q0,22.47,0,44.95c0,1.41.37,3.19-2.49,2.3V.09Z"/><path d="M520.78.09q0,22.47,0,44.95c0,1.41.36,3.19-2.49,2.3V.09Z"/><path d="M447,.09q0,22.47,0,44.95c0,1.41.36,3.19-2.49,2.3V.09Z"/><path d="M502,.09q0,22.47,0,44.95c0,1.41.36,3.19-2.49,2.3V.09Z"/><path d="M485.74.09q0,22.47,0,44.95c0,1.41.36,3.19-2.49,2.3V.09Z"/><path d="M463.22.09q0,22.47,0,44.95c0,1.41.37,3.19-2.48,2.3V.09Z"/><path d="M534.55.09q0,22.47,0,44.95c0,1.41.37,3.19-2.48,2.3V.09Z"/><path d="M543.31.09q0,22.47,0,44.95c0,1.41.37,3.19-2.48,2.3V.09Z"/><path d="M552.07.09q0,22.47,0,44.95c0,1.41.37,3.19-2.48,2.3V.09Z"/><path d="M565.83.09q0,22.47,0,44.95c0,1.41.36,3.19-2.49,2.3V.09Z"/><path d="M579.6.09q0,22.47,0,44.95c0,1.41.36,3.19-2.49,2.3V.09Z"/><rect class="cls-6" x="45.59" y="187.93" width="101.01" height="82.77"/><rect class="cls-6" x="146.6" y="187.93" width="101.01" height="82.77"/><rect class="cls-6" x="247.6" y="187.93" width="101.01" height="82.77"/><rect class="cls-6" x="348.61" y="187.93" width="101.01" height="82.77"/><rect class="cls-6" x="449.68" y="187.93" width="101.01" height="82.77"/><path class="cls-2" d="M89.45,179.75l-1-.59a3.94,3.94,0,0,1-1.56-1.67,5.51,5.51,0,0,1-.55-2.5v-3.51a5.51,5.51,0,0,1,.55-2.5,4.09,4.09,0,0,1,1.56-1.68,4.6,4.6,0,0,1,2.34-.59,4.45,4.45,0,0,1,2,.47,4.28,4.28,0,0,1,1.54,1.33,5.12,5.12,0,0,1,.84,2H93.34a2.82,2.82,0,0,0-1.47-1.8,2.59,2.59,0,0,0-2.46.13,2.45,2.45,0,0,0-.92,1.06,3.71,3.71,0,0,0-.32,1.58V175a3.71,3.71,0,0,0,.32,1.58,2.45,2.45,0,0,0,.92,1.06,2.49,2.49,0,0,0,1.37.37,2.57,2.57,0,0,0,1.09-.23,2.62,2.62,0,0,0,.92-.71,2.78,2.78,0,0,0,.55-1.1h1.84a5.08,5.08,0,0,1-.84,2,4.21,4.21,0,0,1-1.55,1.33,4.28,4.28,0,0,1-2,.47Z"/><path class="cls-2" d="M97.55,166.84h1.8v12.78h-1.8Zm.93,6.12h4.08a1.89,1.89,0,0,0,1-.27,1.73,1.73,0,0,0,.68-.78,2.47,2.47,0,0,0,.25-1.15,2.54,2.54,0,0,0-.25-1.16,1.84,1.84,0,0,0-.68-.78,1.89,1.89,0,0,0-1-.27H98.48v-1.71h4a4.14,4.14,0,0,1,2,.49,3.36,3.36,0,0,1,1.34,1.38,4.62,4.62,0,0,1,0,4.1,3.34,3.34,0,0,1-1.34,1.37,4.13,4.13,0,0,1-2,.48h-4Z"/><path class="cls-2" d="M190,179.75l-.83-.17a6.51,6.51,0,0,1-1.54-.53,6.2,6.2,0,0,1-1.34-.88l1.11-1.37a5.18,5.18,0,0,0,1.61.95,5.63,5.63,0,0,0,1.91.32,3.86,3.86,0,0,0,2.15-.52,1.65,1.65,0,0,0,.77-1.45h0a1.54,1.54,0,0,0-.35-1.06,2.1,2.1,0,0,0-.9-.58,9.79,9.79,0,0,0-1.42-.35H191l-.13,0a13.45,13.45,0,0,1-2.09-.5,2.87,2.87,0,0,1-1.37-1,3.27,3.27,0,0,1-.58-2.09h0a3.65,3.65,0,0,1,.54-2,3.3,3.3,0,0,1,1.55-1.28,6.2,6.2,0,0,1,2.45-.44,6.07,6.07,0,0,1,1.35.15,7.21,7.21,0,0,1,1.31.44,8,8,0,0,1,1.27.75l-1,1.42a5.87,5.87,0,0,0-1.46-.8,4.09,4.09,0,0,0-1.45-.27,3.46,3.46,0,0,0-2,.52,1.72,1.72,0,0,0-.72,1.48h0a1.41,1.41,0,0,0,.37,1,2.3,2.3,0,0,0,.93.56,14.73,14.73,0,0,0,1.56.37h.06l.07,0h.09l.1,0a11.52,11.52,0,0,1,1.94.56,3.07,3.07,0,0,1,1.3,1.05,3.36,3.36,0,0,1,.52,2h0a3.5,3.5,0,0,1-.55,2,3.39,3.39,0,0,1-1.61,1.27,6.59,6.59,0,0,1-2.53.43Z"/><path class="cls-2" d="M198,166.84h1.79v12.78H198Zm.92,6.12H203a1.88,1.88,0,0,0,1-.27,1.81,1.81,0,0,0,.69-.78,2.6,2.6,0,0,0,.24-1.15,2.67,2.67,0,0,0-.24-1.16,1.94,1.94,0,0,0-.69-.78,1.88,1.88,0,0,0-1-.27h-4.09v-1.71h4a4.11,4.11,0,0,1,2,.49,3.39,3.39,0,0,1,1.35,1.38,4.71,4.71,0,0,1,0,4.1,3.36,3.36,0,0,1-1.35,1.37,4.11,4.11,0,0,1-2,.48h-4Z"/><path class="cls-2" d="M288.93,166.84h1.79v12.78h-1.79Zm.87,0h7.33v1.71H289.8Zm0,5.58h6.37v1.71H289.8Zm0,5.5h7.33v1.7H289.8Z"/><path class="cls-2" d="M299.68,166.84h1.8v12.78h-1.8Zm.93,6.12h4.08a1.89,1.89,0,0,0,1-.27,1.73,1.73,0,0,0,.68-.78,2.47,2.47,0,0,0,.25-1.15,2.54,2.54,0,0,0-.25-1.16,1.84,1.84,0,0,0-.68-.78,1.89,1.89,0,0,0-1-.27h-4.08v-1.71h4a4.1,4.1,0,0,1,2,.49,3.39,3.39,0,0,1,1.35,1.38,4.62,4.62,0,0,1,0,4.1,3.36,3.36,0,0,1-1.35,1.37,4.09,4.09,0,0,1-2,.48h-4Z"/><path class="cls-2" d="M397.74,172.74V175a5.43,5.43,0,0,1-.56,2.51,4,4,0,0,1-1.56,1.68,4.55,4.55,0,0,1-2.36.59,4.88,4.88,0,0,1-2.37-.55,4,4,0,0,1-1.59-1.58,4.88,4.88,0,0,1-.56-2.37v-3.77a5.38,5.38,0,0,1,.55-2.5,4,4,0,0,1,1.57-1.68,4.63,4.63,0,0,1,2.35-.59,4.49,4.49,0,0,1,2,.47,4.31,4.31,0,0,1,1.55,1.33,4.84,4.84,0,0,1,.84,2h-1.94a2.74,2.74,0,0,0-.54-1.11,2.58,2.58,0,0,0-.88-.7,2.45,2.45,0,0,0-1.06-.24,2.56,2.56,0,0,0-1.39.38,2.45,2.45,0,0,0-.92,1.06,3.57,3.57,0,0,0-.32,1.58v3.77a3,3,0,0,0,.33,1.45,2.41,2.41,0,0,0,.94,1,2.83,2.83,0,0,0,1.41.34,2.64,2.64,0,0,0,1.39-.35,2.39,2.39,0,0,0,.93-1,3.82,3.82,0,0,0,.32-1.61v-.56h-2.59v-1.71Z"/><path class="cls-2" d="M400.46,166.84h1.8v12.78h-1.8Zm.93,6.12h4.08a1.89,1.89,0,0,0,1-.27,1.73,1.73,0,0,0,.68-.78,2.6,2.6,0,0,0,.25-1.15,2.67,2.67,0,0,0-.25-1.16,1.84,1.84,0,0,0-.68-.78,1.89,1.89,0,0,0-1-.27h-4.08v-1.71h4a4.1,4.1,0,0,1,2,.49,3.39,3.39,0,0,1,1.35,1.38,4.62,4.62,0,0,1,0,4.1,3.36,3.36,0,0,1-1.35,1.37,4.09,4.09,0,0,1-2,.48h-4Z"/><path class="cls-2" d="M490.65,166.84h1.79v12.78h-1.79Zm.92,6.12h4.09a1.88,1.88,0,0,0,1-.27,1.81,1.81,0,0,0,.69-.78,2.6,2.6,0,0,0,.24-1.15,2.67,2.67,0,0,0-.24-1.16,1.94,1.94,0,0,0-.69-.78,1.88,1.88,0,0,0-1-.27h-4.09v-1.71h4a4.11,4.11,0,0,1,2,.49,3.39,3.39,0,0,1,1.35,1.38,4.71,4.71,0,0,1,0,4.1,3.36,3.36,0,0,1-1.35,1.37,4.11,4.11,0,0,1-2,.48h-4Z"/><path class="cls-2" d="M501.68,166.84h1.79v12.78h-1.79Zm.92,6.12h4.09a1.94,1.94,0,0,0,1-.27,1.86,1.86,0,0,0,.68-.78,2.6,2.6,0,0,0,.24-1.15,2.67,2.67,0,0,0-.24-1.16,2,2,0,0,0-.68-.78,1.94,1.94,0,0,0-1-.27H502.6v-1.71h4a4.11,4.11,0,0,1,2,.49,3.39,3.39,0,0,1,1.35,1.38,4.71,4.71,0,0,1,0,4.1,3.36,3.36,0,0,1-1.35,1.37,4.11,4.11,0,0,1-2,.48h-4Z"/><path class="cls-2" d="M47.51,301.7H45.72V288.92h1.79Z"/><path class="cls-2" d="M49.62,288.92h9v1.7h-9ZM53.23,290H55V301.7H53.23Z"/><path class="cls-2" d="M60.39,288.92h1.8V301.7h-1.8Zm.87,0H68.6v1.7H61.26Zm0,5.58h6.38v1.71H61.26Zm0,5.49H68.6v1.71H61.26Z"/><path class="cls-2" d="M80.34,288.92H82V301.7H80.27v-9.57l.08.56-3.14,7.23H76l-3.15-7.05.09-.74v9.57H71.15V288.92h1.68l3.75,8.44Z"/><path class="cls-2" d="M473.52,301.25a3.93,3.93,0,0,1-1.57-1.66,5.26,5.26,0,0,1-.56-2.47V293.5A5.33,5.33,0,0,1,472,291a4,4,0,0,1,1.57-1.65,5.09,5.09,0,0,1,4.72,0,4,4,0,0,1,1.57,1.65,5.21,5.21,0,0,1,.56,2.48v3.62a5.14,5.14,0,0,1-.56,2.47,3.93,3.93,0,0,1-1.57,1.66,5.09,5.09,0,0,1-4.72,0Zm3.75-1.54a2.48,2.48,0,0,0,.94-1,3.47,3.47,0,0,0,.32-1.52v-3.74a3.47,3.47,0,0,0-.32-1.52,2.42,2.42,0,0,0-.94-1,2.86,2.86,0,0,0-2.78,0,2.4,2.4,0,0,0-.93,1,3.34,3.34,0,0,0-.33,1.52v3.74a3.34,3.34,0,0,0,.33,1.52,2.46,2.46,0,0,0,.93,1,2.94,2.94,0,0,0,2.78,0Zm-1.42-1.55.94-1.19,4.76,3.74-.93,1.2Z"/><path class="cls-2" d="M485.37,301.27a3.71,3.71,0,0,1-1.54-1.62,5.81,5.81,0,0,1-.52-2.57v-8.16h1.79v8.22a3.07,3.07,0,0,0,.7,2.16,3,3,0,0,0,4,0,3.07,3.07,0,0,0,.71-2.16v-8.22h1.79v8.16a5.8,5.8,0,0,1-.53,2.57,3.61,3.61,0,0,1-1.54,1.62,5.53,5.53,0,0,1-4.85,0Z"/><path class="cls-2" d="M498.23,288.92h1.53l4.71,12.78h-1.93L499,291.39l-3.55,10.31h-1.93Zm-2.54,8.27h6.72v1.7h-6.72Z"/><path class="cls-2" d="M506.4,288.92H508l6.25,9.88-.21.23V288.92h1.77v12.77H514.2L508,292l.21-.23v10H506.4Z"/><path class="cls-2" d="M518,288.92h9v1.7h-9Zm3.62,1.05h1.79V301.7h-1.79Z"/><path class="cls-2" d="M530.52,301.7h-1.79V288.92h1.79Z"/><path class="cls-2" d="M532.63,288.92h9v1.7h-9Zm3.61,1.05H538V301.7h-1.8Z"/><path class="cls-2" d="M548,296.5v5.2h-1.79v-5.2l-3.9-7.58h2l2.79,5.76,2.8-5.76h2Z"/><rect x="430.51" y="0.12" width="1.32" height="47.49"/><rect x="433.65" width="1.32" height="47.49"/><rect x="439.05" y="0.12" width="1.32" height="47.49"/><rect x="449.42" y="0.12" width="1.32" height="47.49"/><rect x="472.57" width="1.32" height="47.49"/><rect x="477.91" width="1.32" height="47.49"/><rect x="480.57" width="1.32" height="47.49"/><rect x="490.09" width="1.32" height="47.49"/><rect x="494.8" width="1.32" height="47.49"/><rect x="506.51" width="1.32" height="47.49"/><rect x="522.63" y="0.12" width="1.32" height="47.49"/><rect x="527.34" y="0.12" width="1.32" height="47.49"/><rect x="574.56" width="1.32" height="47.49"/><rect x="557.87" y="0.12" width="1.32" height="47.49"/><rect x="554.31" y="0.12" width="1.32" height="47.49"/><rect x="544.78" width="1.32" height="47.49"/><rect x="536.25" width="1.32" height="47.49"/></g></g></svg>